HIERARCHY
ROOT Hips
{
  OFFSET 0.0 0.0 0.0
  CHANNELS 6 Xposition Yposition Zposition Zrotation Xrotation Yrotation
  JOINT Joint_01
  {
    OFFSET 0.0 0.0 0.0
    CHANNELS 3 Zrotation Xrotation Yrotation
    End Site
    {
      OFFSET 0.0 0.0 0.0
    }
  }
  JOINT Joint_02
  {
    OFFSET 0.0 0.0 0.0
    CHANNELS 3 Zrotation Xrotation Yrotation
    End Site
    {
      OFFSET 0.0 0.0 0.0
    }
  }
  JOINT Joint_03
  {
    OFFSET 0.0 0.0 0.0
    CHANNELS 3 Zrotation Xrotation Yrotation
    End Site
    {
      OFFSET 0.0 0.0 0.0
    }
  }
  JOINT Joint_04
  {
    OFFSET 0.0 0.0 0.0
    CHANNELS 3 Zrotation Xrotation Yrotation
    End Site
    {
      OFFSET 0.0 0.0 0.0
    }
  }
  JOINT Joint_05
  {
    OFFSET 0.0 0.0 0.0
    CHANNELS 3 Zrotation Xrotation Yrotation
    End Site
    {
      OFFSET 0.0 0.0 0.0
    }
  }
  JOINT Joint_06
  {
    OFFSET 0.0 0.0 0.0
    CHANNELS 3 Zrotation Xrotation Yrotation
    End Site
    {
      OFFSET 0.0 0.0 0.0
    }
  }
  JOINT Joint_07
  {
    OFFSET 0.0 0.0 0.0
    CHANNELS 3 Zrotation Xrotation Yrotation
    End Site
    {
      OFFSET 0.0 0.0 0.0
    }
  }
  JOINT Joint_08
  {
    OFFSET 0.0 0.0 0.0
    CHANNELS 3 Zrotation Xrotation Yrotation
    End Site
    {
      OFFSET 0.0 0.0 0.0
    }
  }
  JOINT Joint_09
  {
    OFFSET 0.0 0.0 0.0
    CHANNELS 3 Zrotation Xrotation Yrotation
    End Site
    {
      OFFSET 0.0 0.0 0.0
    }
  }
  JOINT Joint_10
  {
    OFFSET 0.0 0.0 0.0
    CHANNELS 3 Zrotation Xrotation Yrotation
    End Site
    {
      OFFSET 0.0 0.0 0.0
    }
  }
  JOINT Joint_11
  {
    OFFSET 0.0 0.0 0.0
    CHANNELS 3 Zrotation Xrotation Yrotation
    End Site
    {
      OFFSET 0.0 0.0 0.0
    }
  }
  JOINT Joint_12
  {
    OFFSET 0.0 0.0 0.0
    CHANNELS 3 Zrotation Xrotation Yrotation
    End Site
    {
      OFFSET 0.0 0.0 0.0
    }
  }
  JOINT Joint_13
  {
    OFFSET 0.0 0.0 0.0
    CHANNELS 3 Zrotation Xrotation Yrotation
    End Site
    {
      OFFSET 0.0 0.0 0.0
    }
  }
  JOINT Joint_14
  {
    OFFSET 0.0 0.0 0.0
    CHANNELS 3 Zrotation Xrotation Yrotation
    End Site
    {
      OFFSET 0.0 0.0 0.0
    }
  }
  JOINT Joint_15
  {
    OFFSET 0.0 0.0 0.0
    CHANNELS 3 Zrotation Xrotation Yrotation
    End Site
    {
      OFFSET 0.0 0.0 0.0
    }
  }
  JOINT Joint_16
  {
    OFFSET 0.0 0.0 0.0
    CHANNELS 3 Zrotation Xrotation Yrotation
    End Site
    {
      OFFSET 0.0 0.0 0.0
    }
  }
  JOINT Joint_17
  {
    OFFSET 0.0 0.0 0.0
    CHANNELS 3 Zrotation Xrotation Yrotation
    End Site
    {
      OFFSET 0.0 0.0 0.0
    }
  }
  JOINT Joint_18
  {
    OFFSET 0.0 0.0 0.0
    CHANNELS 3 Zrotation Xrotation Yrotation
    End Site
    {
      OFFSET 0.0 0.0 0.0
    }
  }
  JOINT Joint_19
  {
    OFFSET 0.0 0.0 0.0
    CHANNELS 3 Zrotation Xrotation Yrotation
    End Site
    {
      OFFSET 0.0 0.0 0.0
    }
  }
  JOINT Joint_20
  {
    OFFSET 0.0 0.0 0.0
    CHANNELS 3 Zrotation Xrotation Yrotation
    End Site
    {
      OFFSET 0.0 0.0 0.0
    }
  }
}
MOTION
Frames: 6
Frame Time: 0.033333
0.000000 0.000000 0.000000 0.000000 0.000000 0.000000 -0.533248 -0.024035 0.004411 -0.164985 0.255777 0.150432 -0.302922 -0.406597 0.224229 -0.495981 -0.035838 0.462863 -0.495981 -0.035838 0.462863 -0.206918 0.064445 0.060178 -0.376403 -0.157331 0.177273 -0.512020 -0.005000 0.214902 -0.512020 -0.005000 0.214902 -0.374333 -0.033278 -0.347876 -0.352691 0.089516 -0.000028 -0.557573 -0.080717 0.091960 0.798652 0.096975 -0.245293 0.721376 2.144924 0.749908 1.308785 1.866374 1.054636 -0.046393 -0.033701 -0.522113 0.526749 2.052019 -0.350968 0.407966 2.460011 -0.343153 -0.622860 0.122234 0.462942 -0.505412 -0.305634 0.592486
0.000000 0.000000 0.000000 0.000000 0.000000 0.000000 -0.469542 -0.044873 0.088590 -0.207427 0.241713 0.158744 -0.464388 -0.357585 0.205228 -0.695902 -0.020108 0.368009 -0.695902 -0.020108 0.368009 -0.224824 0.054912 0.090631 -0.471018 -0.145845 0.176674 -0.652770 0.017416 0.189265 -0.652770 0.017416 0.189265 -0.456136 -0.054269 -0.285794 -0.490523 0.071713 0.054741 -0.774900 -0.136701 0.057928 0.093673 -0.323507 -0.377592 0.460274 2.030406 -0.061849 1.302619 1.925033 0.635816 0.022651 0.033838 -0.474911 0.502338 2.037980 -0.273375 0.480266 2.389281 -0.222564 -0.601346 0.219152 0.355012 -0.429800 -0.513141 0.558782
0.000000 0.000000 0.000000 0.000000 0.000000 0.000000 -0.549908 -0.089728 0.079717 -0.304615 0.178608 0.125389 -0.541247 -0.389696 0.223536 -0.713534 -0.054115 0.219985 -0.713534 -0.054115 0.219985 -0.324010 0.002200 0.038574 -0.551672 -0.129473 0.192381 -0.735592 0.020349 0.197303 -0.735592 0.020349 0.197303 -0.490530 0.091510 -0.233732 -0.469348 0.260024 0.091413 -0.741538 -0.088332 0.138390 -0.909838 -0.010791 0.292193 -0.854775 1.850745 -0.735681 0.351050 2.159063 -0.148535 0.069277 0.150037 -0.429179 0.486499 2.117391 -0.210387 0.420605 2.394292 -0.057553 -0.330298 0.114897 0.428546 -0.177189 -0.522689 0.517667
0.000000 0.000000 0.000000 0.000000 0.000000 0.000000 -0.581215 -0.127072 0.081536 -0.353236 0.174128 0.121368 -0.561502 -0.400904 0.226920 -0.695623 -0.080394 0.144396 -0.695623 -0.080394 0.144396 -0.353913 -0.005104 0.029733 -0.549854 -0.121936 0.186580 -0.722045 0.017895 0.178503 -0.722045 0.017895 0.178503 -0.485247 0.125826 -0.177674 -0.478576 0.310277 0.142713 -0.713225 -0.068525 0.133454 -0.998139 0.084470 0.381104 -1.023743 1.851139 -0.747586 0.304276 2.136286 -0.159627 0.110608 0.170697 -0.380604 0.463407 2.130510 -0.139508 0.558050 2.404289 -0.199732 -0.288078 0.054825 0.388511 -0.150715 -0.583992 0.466995
0.000000 0.000000 0.000000 0.000000 0.000000 0.000000 -0.577342 -0.126818 0.084719 -0.357929 0.180062 0.120039 -0.566863 -0.399675 0.230932 -0.698000 -0.086381 0.133058 -0.698000 -0.086381 0.133058 -0.358305 0.001209 0.029316 -0.554567 -0.123256 0.191813 -0.731622 0.014887 0.184033 -0.731622 0.014887 0.184033 -0.491982 0.124566 -0.173549 -0.489253 0.309070 0.145223 -0.717782 -0.068376 0.133082 -1.008924 0.080569 0.379082 -1.027338 1.844908 -0.759978 0.320878 2.113648 -0.159984 0.117197 0.167626 -0.364962 0.450604 2.123137 -0.123623 0.556125 2.385186 -0.172989 -0.280569 0.051670 0.382945 -0.145549 -0.586659 0.459196
0.000000 0.000000 0.000000 0.000000 0.000000 0.000000 -0.574377 -0.132869 0.095050 -0.368689 0.173572 0.113116 -0.574854 -0.395721 0.230868 -0.695219 -0.093032 0.111856 -0.695219 -0.093032 0.111856 -0.358627 -0.004295 0.024470 -0.543685 -0.123097 0.190170 -0.720490 0.017681 0.179850 -0.720490 0.017681 0.179850 -0.494569 0.128455 -0.155153 -0.498335 0.317611 0.164020 -0.720992 -0.057741 0.130728 -1.016811 0.073419 0.372289 -1.024408 1.835115 -0.770445 0.351923 2.074781 -0.147994 0.115490 0.169581 -0.358420 0.443197 2.127588 -0.120754 0.573812 2.375339 -0.167774 -0.284293 0.036314 0.361986 -0.155993 -0.603068 0.440664
